<svg xmlns="http://www.w3.org/2000/svg" viewBox="0 0 500 500">
  <path d="M170.5 219.5a32 32 0 1 1-32-32h32v32zm16 0a32 32 0 1 1 64 0v80a32 32 0 1 1-64 0v-80z" fill="#E01E5A"/>
  <path d="M218.5 138.5a32 32 0 1 1 32-32v32h-32zm0 17a32 32 0 1 1 0 64h-80a32 32 0 1 1 0-64h80z" fill="#36C5F0"/>
  <path d="M329.5 187.5a32 32 0 1 1 32 32h-32v-32zm-16 0a32 32 0 1 1-64 0v-80a32 32 0 1 1 64 0v80z" fill="#2EB67D"/>
  <path d="M281.5 361.5a32 32 0 1 1-32 32v-32h32zm0-16a32 32 0 1 1 0-64h80a32 32 0 1 1 0 64h-80z" fill="#ECB22E"/>
</svg>
